<?xml version="1.0" standalone="no"?>
<!DOCTYPE svg PUBLIC "-//W3C//DTD SVG 20010904//EN"
 "http://www.w3.org/TR/2001/REC-SVG-20010904/DTD/svg10.dtd">
<svg version="1.0" xmlns="http://www.w3.org/2000/svg"
 width="1100.000000pt" height="1100.000000pt" viewBox="0 0 1100.000000 1100.000000"
 preserveAspectRatio="xMidYMid meet">
<metadata>
Created by potrace 1.14, written by Peter Selinger 2001-2017
</metadata>
<g transform="translate(0.000000,1100.000000) scale(0.100000,-0.100000)"
fill="#000000" stroke="none">
<path d="M3943 7324 c-5 -13 -7 -13 -14 -2 -7 11 -11 10 -19 -2 -5 -8 -10 -10
-10 -4 0 6 -7 11 -15 11 -8 0 -12 -4 -9 -9 8 -13 -10 -10 -25 5 -11 10 -12 9
-6 -2 5 -9 3 -12 -6 -9 -7 2 -24 -1 -38 -8 -16 -8 -30 -10 -41 -4 -10 5 -20 6
-24 3 -3 -3 -6 1 -6 11 0 12 -7 16 -25 13 -13 -1 -28 -7 -32 -12 -5 -4 -2 -5
6 0 9 5 12 4 7 -3 -4 -7 -16 -12 -27 -12 -11 0 -17 -4 -14 -10 3 -5 -1 -10
-10 -10 -9 0 -14 -4 -11 -9 7 -11 -22 -23 -35 -15 -5 3 -9 1 -9 -5 0 -6 -8 -7
-17 -4 -12 5 -15 2 -10 -10 3 -9 1 -19 -5 -23 -7 -4 -8 -3 -4 4 4 7 3 12 -3
12 -5 0 -9 -9 -8 -19 0 -11 5 -17 10 -14 5 3 8 0 5 -8 -5 -15 22 -50 34 -43 4
3 8 0 8 -7 0 -6 8 -9 20 -6 11 3 20 1 20 -5 0 -5 4 -7 8 -4 5 3 9 -1 9 -9 0
-8 -4 -15 -8 -15 -5 0 -6 -6 -3 -13 3 -8 -2 -20 -11 -27 -8 -7 -15 -9 -15 -4
0 4 -13 -10 -29 -32 -16 -21 -27 -42 -25 -46 3 -5 0 -8 -7 -8 -7 0 -5 -8 6
-20 23 -26 28 -51 9 -43 -8 3 -14 0 -14 -6 0 -6 6 -11 13 -11 8 0 7 -3 -2 -9
-10 -6 -14 -24 -13 -50 2 -29 -3 -46 -17 -60 -12 -12 -16 -23 -10 -27 7 -4 6
-10 -1 -19 -8 -10 -8 -15 0 -20 8 -5 8 -11 -1 -21 -9 -11 -8 -14 2 -14 11 0
11 -2 -1 -10 -12 -8 -12 -10 -1 -10 11 0 11 -3 1 -15 -8 -9 -8 -15 -2 -15 6 0
-1 -13 -16 -28 -15 -15 -31 -26 -35 -24 -5 2 -11 -5 -14 -17 -3 -12 -9 -21
-12 -21 -4 0 -8 -7 -8 -15 0 -8 4 -15 9 -15 5 0 6 -5 3 -10 -3 -6 1 -13 10
-16 13 -6 14 -8 3 -15 -10 -7 -10 -9 3 -9 9 0 16 -7 16 -15 0 -8 -4 -15 -9
-15 -4 0 -7 -3 -7 -7 3 -19 -2 -34 -9 -29 -8 5 -8 -21 1 -96 4 -26 1 -38 -10
-42 -13 -5 -13 -9 -2 -22 10 -12 10 -17 0 -23 -7 -5 -12 -11 -12 -15 3 -18 0
-20 -10 -6 -8 12 -9 10 -4 -7 3 -13 2 -23 -3 -23 -5 0 -8 -10 -7 -22 1 -13 -3
-29 -9 -37 -8 -12 -8 -13 2 -7 9 6 13 -1 12 -26 0 -18 0 -49 2 -68 2 -27 -1
-35 -15 -34 -9 1 -15 -3 -14 -10 1 -6 -6 -10 -15 -10 -10 1 -17 -1 -16 -5 2
-19 -3 -31 -12 -26 -5 3 -10 -3 -10 -15 0 -14 -4 -19 -12 -14 -10 6 -10 5 -1
-7 8 -10 9 -19 3 -25 -14 -14 -20 -63 -8 -70 7 -5 8 -2 3 6 -5 9 -4 11 4 6 9
-6 9 -11 -1 -24 -11 -13 -11 -15 3 -10 13 5 15 1 11 -19 -4 -20 -2 -24 8 -18
10 6 12 4 7 -9 -4 -10 -3 -15 3 -11 6 3 10 -2 10 -12 0 -14 2 -15 9 -4 6 9 10
10 12 2 3 -7 14 -13 26 -14 14 -1 23 -9 26 -24 2 -13 0 -23 -4 -23 -5 0 -9 -6
-9 -13 0 -7 -11 -21 -25 -31 -20 -15 -22 -22 -14 -37 7 -13 6 -19 -1 -19 -7 0
-5 -7 4 -15 24 -24 3 -85 -29 -85 -7 0 -15 -7 -19 -15 -3 -8 0 -15 7 -15 8 0
8 -3 2 -8 -11 -7 -12 -48 -2 -59 4 -3 1 -15 -4 -26 -8 -15 -8 -22 2 -28 12 -7
12 -9 0 -9 -8 0 -12 -3 -8 -6 3 -3 -3 -14 -14 -25 -11 -11 -17 -24 -14 -29 4
-6 2 -10 -2 -10 -5 0 -9 -9 -10 -21 -1 -14 3 -19 12 -15 9 3 12 0 8 -10 -3 -7
-2 -22 2 -31 13 -30 14 -43 3 -36 -7 4 -9 -1 -6 -14 3 -12 2 -27 -3 -34 -4 -7
-4 -18 1 -24 6 -7 4 -22 -5 -38 -10 -19 -10 -25 -2 -21 7 4 5 -1 -4 -12 -9
-10 -14 -25 -12 -31 3 -7 0 -13 -6 -13 -6 0 -11 -5 -11 -11 0 -5 4 -8 9 -5 10
7 9 -20 -2 -30 -4 -4 -2 -13 5 -21 8 -11 7 -12 -5 -8 -8 4 -18 1 -23 -6 -4 -8
-3 -10 4 -5 19 11 14 -5 -5 -21 -11 -9 -12 -11 -3 -7 10 5 8 -1 -5 -16 -19
-22 -19 -23 -1 -16 15 5 17 4 8 -7 -7 -8 -9 -17 -5 -20 3 -4 1 -7 -7 -7 -10 0
-10 -3 0 -15 11 -13 10 -14 -5 -8 -15 5 -17 3 -12 -10 4 -10 2 -28 -3 -42 -7
-17 -6 -25 1 -25 7 0 6 -6 -2 -17 -9 -11 -10 -14 -2 -9 9 5 11 2 7 -8 -3 -9
-10 -16 -16 -16 -5 0 -7 -4 -4 -9 4 -5 0 -12 -6 -14 -10 -4 -10 -6 0 -6 6 -1
12 -6 12 -12 0 -5 -4 -7 -10 -4 -5 3 -10 4 -10 1 0 -7 56 -36 61 -31 2 2 5
-10 6 -26 2 -21 -1 -28 -10 -22 -8 4 -7 1 2 -10 11 -14 11 -18 -3 -23 -13 -5
-14 -8 -1 -20 8 -8 12 -21 8 -29 -3 -9 0 -22 6 -29 9 -11 9 -16 0 -22 -7 -4
-9 -3 -5 4 3 6 2 13 -4 17 -5 3 -10 1 -10 -4 0 -6 -7 -11 -15 -11 -8 0 -15 5
-15 11 0 8 -6 7 -17 -2 -9 -8 -14 -9 -10 -3 3 6 0 11 -8 11 -8 0 -12 -4 -9 -9
3 -4 1 -8 -5 -8 -22 0 -15 -37 14 -64 16 -16 21 -23 11 -15 -18 13 -19 13 -7
-9 14 -27 12 -32 -17 -35 -11 0 -18 -5 -15 -11 4 -5 -1 -7 -11 -3 -14 5 -17 3
-12 -8 3 -8 1 -15 -4 -15 -6 0 -6 -9 -1 -22 9 -25 28 -30 49 -15 9 7 11 5 6
-8 -6 -15 -5 -16 14 -4 16 10 24 11 33 2 12 -12 2 -56 -11 -48 -5 3 -12 0 -16
-6 -4 -8 -3 -9 4 -5 16 10 15 -7 0 -23 -11 -11 -10 -12 1 -6 11 6 13 4 8 -9
-4 -10 -1 -19 8 -22 8 -4 13 -9 10 -14 -2 -4 0 -21 5 -39 5 -18 5 -31 0 -31
-5 0 -6 -7 -3 -17 5 -11 3 -14 -6 -8 -10 6 -11 3 -2 -14 7 -11 9 -21 6 -21 -3
0 3 -8 12 -18 12 -12 21 -14 25 -8 5 7 8 6 8 -2 0 -7 5 -10 10 -7 6 3 10 0 10
-7 0 -9 3 -9 10 2 8 12 10 12 10 1 0 -10 3 -11 14 -2 11 9 16 9 22 0 5 -8 3
-10 -7 -4 -8 5 -10 4 -6 0 11 -12 37 -15 37 -4 0 5 5 9 11 9 5 0 8 -4 4 -9 -3
-6 11 -13 31 -17 22 -4 31 -9 24 -14 -9 -6 -6 -10 9 -15 12 -3 19 -10 16 -15
-7 -11 20 -18 82 -23 29 -3 44 0 47 10 3 7 4 15 3 17 -1 2 7 14 18 27 11 13
13 18 5 12 -8 -7 -19 -13 -24 -13 -6 1 0 10 13 21 13 11 21 22 18 26 -11 10
13 32 29 26 10 -4 12 0 8 11 -3 9 -11 13 -18 9 -6 -3 -2 4 9 17 13 15 15 21 5
16 -8 -4 -7 -1 3 7 10 9 18 19 19 24 0 4 4 7 10 5 5 -1 7 2 3 8 -3 5 -3 16 2
23 8 13 10 18 12 43 1 9 6 12 14 8 8 -5 8 -2 -2 9 -12 15 -11 17 5 17 16 0 17
2 4 10 -11 7 -11 10 -2 10 8 0 10 5 6 12 -5 7 -9 21 -9 30 -1 14 1 15 12 6 11
-9 12 -7 5 13 -11 29 -5 52 11 43 8 -5 8 -2 0 7 -16 16 -17 33 -1 23 7 -5 8
-3 3 5 -11 18 -12 80 -1 84 5 2 4 12 -3 24 -9 17 -8 25 5 37 10 10 11 16 3 16
-8 0 -9 3 0 13 6 8 8 17 4 20 -3 4 -1 7 5 7 6 0 9 9 7 20 -2 11 1 20 7 20 5 0
8 7 4 15 -3 8 0 15 6 15 7 0 6 5 -2 15 -8 9 -8 15 -2 15 7 0 8 10 2 30 -6 21
-5 30 3 30 7 0 6 4 -3 10 -9 6 -10 10 -3 10 8 0 9 9 3 31 -5 18 -7 36 -4 40 3
5 0 9 -6 9 -6 0 -9 4 -5 9 3 5 1 12 -5 16 -6 4 -7 12 -3 18 11 18 14 89 3 82
-5 -3 -7 5 -4 17 3 13 6 28 6 35 1 7 5 10 9 7 4 -2 9 -1 12 3 2 5 2 3 1 -4 -2
-6 5 -14 14 -16 12 -3 11 -5 -5 -6 -12 0 -24 -5 -27 -10 -3 -4 5 -7 18 -6 18
2 23 -2 22 -18 -1 -12 6 -21 17 -23 9 -1 14 2 11 8 -3 5 4 4 15 -4 18 -11 23
-11 30 1 7 11 9 11 14 0 5 -12 7 -12 15 -1 8 11 10 11 15 -1 3 -8 17 -13 36
-12 16 1 28 -1 26 -5 -2 -3 0 -12 6 -20 7 -13 9 -13 10 0 0 10 3 8 8 -5 5 -11
4 -28 -1 -39 -7 -13 -7 -16 2 -11 7 5 11 1 10 -11 -4 -32 0 -45 9 -40 5 3 12
-1 15 -10 5 -13 9 -14 21 -4 8 7 15 9 15 4 0 -4 5 -3 12 4 9 9 15 9 27 -1 10
-8 12 -8 8 -1 -8 14 51 13 73 -1 8 -5 11 -4 6 3 -4 7 4 10 23 10 17 -1 28 -4
26 -8 -2 -4 2 -16 9 -26 11 -14 11 -22 3 -32 -8 -10 -7 -16 4 -23 11 -7 11 -9
0 -9 -11 0 -11 -3 -1 -15 7 -8 8 -15 3 -15 -5 0 -10 -7 -10 -15 0 -8 5 -11 10
-8 6 4 8 0 4 -9 -8 -22 13 -46 43 -51 41 -6 61 -18 59 -36 -1 -9 0 -18 1 -21
8 -21 4 -53 -7 -57 -7 -3 -13 -9 -13 -15 0 -5 4 -6 10 -3 6 3 10 0 10 -9 0 -8
-6 -17 -12 -20 -10 -5 -10 -7 0 -12 10 -5 9 -9 -5 -19 -15 -11 -15 -15 -4 -29
11 -13 11 -16 1 -16 -8 0 -10 -3 -7 -7 4 -3 1 -13 -6 -21 -10 -13 -9 -15 6 -9
16 6 16 5 2 -17 -14 -21 -13 -24 5 -41 11 -10 20 -27 20 -37 0 -11 4 -17 9
-14 5 3 11 -3 14 -14 3 -13 1 -18 -6 -14 -8 5 -8 3 0 -6 10 -11 9 -16 -4 -25
-13 -10 -13 -14 -3 -20 9 -6 11 -4 5 6 -5 8 -4 11 1 6 12 -12 13 -57 0 -57 -6
0 -4 -5 5 -10 9 -5 15 -20 14 -32 -2 -13 4 -29 11 -36 8 -7 14 -9 14 -5 0 4
10 -3 21 -17 11 -14 17 -18 13 -10 -6 12 -5 13 8 3 8 -7 18 -10 22 -6 4 4 11
2 15 -5 9 -14 101 -22 101 -9 0 5 6 5 13 0 17 -11 37 -13 37 -4 0 5 12 6 27 3
22 -4 25 -2 19 13 -5 13 -3 15 6 8 7 -6 23 -9 36 -8 12 1 22 -2 22 -7 0 -13
52 -4 88 15 28 16 38 33 33 61 -1 4 4 14 10 22 7 9 7 14 1 14 -5 0 -13 7 -16
16 -3 8 -2 12 4 9 12 -7 14 8 3 19 -5 4 -8 12 -8 16 0 5 -9 16 -20 23 -17 13
-18 17 -5 33 9 11 10 15 3 10 -13 -7 -15 -3 -15 47 -1 15 -5 27 -11 27 -5 0
-7 9 -4 20 3 11 1 20 -4 20 -5 0 -9 5 -9 11 0 5 4 8 9 5 5 -4 7 3 4 14 -3 11
-10 17 -17 13 -6 -4 -4 2 4 13 8 10 10 16 6 12 -14 -12 -35 24 -27 47 11 31 4
75 -16 98 -12 14 -13 18 -3 12 10 -6 9 -2 -3 12 -18 21 -18 22 0 32 11 6 13
11 5 11 -9 0 -11 7 -7 23 4 16 4 18 -3 8 -8 -11 -11 -9 -17 8 -6 18 -16 25
-36 23 -3 -1 -5 22 -5 51 1 35 -5 64 -19 87 -18 33 -18 34 -1 20 18 -14 18
-14 6 7 -8 12 -18 19 -23 16 -5 -3 -6 4 -2 16 4 15 1 29 -10 40 -9 10 -18 31
-21 47 -3 15 -8 32 -11 38 -4 6 1 5 10 -3 16 -12 17 -12 11 5 -4 10 -11 24
-16 31 -5 7 -5 14 1 18 11 6 -8 47 -19 41 -3 -2 -14 6 -25 17 -11 11 -13 16
-5 12 8 -4 5 2 -8 14 -19 19 -22 41 -6 41 3 0 2 -4 -1 -10 -3 -5 -1 -10 4 -10
14 0 14 13 -1 28 -9 9 -9 12 2 12 13 0 13 2 0 10 -8 5 -10 10 -3 10 6 0 9 9 6
21 -4 13 -8 16 -13 10 -3 -7 -6 4 -6 23 1 26 4 32 14 24 9 -8 11 -7 6 6 -3 9
-10 16 -15 16 -4 0 -5 7 -2 17 5 12 3 14 -7 8 -8 -5 -11 -4 -7 3 8 12 -2 44
-12 38 -4 -3 -7 20 -7 50 -1 32 4 54 10 55 6 0 2 4 -9 9 -11 5 -15 9 -8 9 7 1
10 10 6 24 -3 12 -6 34 -6 49 -1 14 -5 24 -8 22 -4 -2 -10 3 -13 12 -3 8 -2
12 4 9 6 -3 10 -1 10 4 0 6 -4 11 -9 11 -4 0 -6 11 -3 25 2 14 8 25 13 25 4 0
6 9 4 20 -2 11 2 20 8 20 7 0 6 4 -3 10 -9 6 -10 10 -3 10 7 0 10 10 7 26 -3
14 1 33 8 42 11 13 10 15 -4 9 -10 -3 -18 -2 -18 3 0 6 5 10 11 10 5 0 7 5 4
10 -4 6 -1 18 7 27 8 10 8 14 1 10 -6 -4 -14 -3 -18 3 -3 5 -1 10 4 10 6 0 11
5 11 11 0 5 -4 8 -8 5 -5 -3 -8 5 -7 17 1 13 -6 27 -19 34 -14 8 -16 12 -6 13
8 0 0 9 -17 20 -37 22 -37 23 -23 50 7 13 7 21 0 25 -6 4 -8 11 -5 16 4 5 1 9
-5 9 -6 0 -8 4 -5 10 3 5 -1 20 -10 33 -8 13 -12 27 -8 30 3 4 1 7 -7 7 -10 0
-10 4 1 17 12 15 12 16 -1 8 -13 -8 -13 -7 -1 8 9 11 10 17 2 17 -13 0 -10 22
4 32 6 5 5 8 -3 8 -7 0 -10 5 -7 10 4 6 1 18 -7 27 -11 15 -11 16 6 10 17 -7
17 -6 5 9 -8 9 -12 28 -11 42 2 13 0 22 -5 19 -4 -3 -17 7 -28 22 -15 21 -16
23 -2 12 15 -12 17 -12 11 3 -3 9 -10 16 -15 16 -4 0 -5 7 -2 17 4 10 2 14 -4
10 -13 -8 -11 19 2 30 4 5 5 1 0 -7 -5 -8 -4 -12 0 -7 12 11 14 47 2 40 -6 -3
-7 -1 -3 6 12 18 15 80 5 87 -5 3 -7 10 -3 15 3 5 0 8 -8 7 -7 -2 -12 5 -11
15 0 11 -4 16 -12 13 -14 -5 -30 20 -26 42 1 6 -4 12 -11 13 -7 0 -4 4 7 9 18
8 18 9 2 9 -15 1 -16 4 -7 22 9 15 8 24 -2 37 -7 9 -8 13 -2 9 6 -3 11 0 11 8
0 8 -3 13 -5 10 -9 -9 -31 30 -32 54 0 13 -3 21 -7 18 -6 -7 -45 68 -46 90 0
9 -4 10 -14 2 -10 -9 -13 -8 -13 5 0 10 -4 14 -10 11 -5 -3 -10 -1 -10 5 0 6
-4 9 -9 6 -5 -4 -12 0 -15 6 -5 10 -7 10 -12 0 -5 -10 -9 -10 -21 -1 -8 7 -13
8 -12 3 1 -5 -1 -17 -6 -27 -4 -9 -5 -26 -2 -37 3 -11 0 -20 -6 -20 -7 0 -5
-5 3 -10 11 -7 11 -10 2 -10 -7 0 -11 -4 -8 -9 7 -11 -24 -37 -43 -37 -17 1
-28 26 -11 26 8 0 9 4 4 13 -5 6 -9 24 -8 40 0 15 -3 27 -9 27 -6 0 -6 4 0 13
6 6 9 24 8 40 -1 15 2 27 7 27 5 0 7 4 4 9 -9 15 5 42 18 34 6 -4 5 1 -3 10
-11 14 -11 18 2 23 21 8 30 34 17 49 -7 8 -7 16 -2 19 5 3 8 17 7 30 -2 15 5
31 18 43 l22 18 -20 -25 -20 -25 22 19 c18 15 20 22 12 33 -9 10 -7 13 7 14
15 0 16 2 4 7 -21 10 -22 85 -2 77 12 -4 13 -3 3 9 -7 8 -10 20 -6 25 4 7 -1
8 -11 4 -14 -5 -16 -2 -12 19 3 14 0 25 -6 25 -32 -1 -47 4 -41 13 3 6 -1 10
-10 10 -10 0 -14 -5 -10 -12 3 -7 -2 -3 -11 10 -9 12 -25 22 -35 22 -11 0 -19
6 -19 13 0 8 -4 7 -10 -3 -9 -13 -14 -7 -11 13 2 13 -10 7 -16 -9z m138 -377
c-10 -9 -11 -8 -5 6 3 10 9 15 12 12 3 -3 0 -11 -7 -18z m-11 -307 c0 -5 -4
-10 -10 -10 -5 0 -10 5 -10 10 0 6 5 10 10 10 6 0 10 -4 10 -10z m-25 -20 c3
-5 1 -10 -4 -10 -6 0 -11 5 -11 10 0 6 2 10 4 10 3 0 8 -4 11 -10z m-525 -24
c0 -2 -8 -10 -17 -17 -16 -13 -17 -12 -4 4 13 16 21 21 21 13z m374 -318 c-6
-10 -4 -10 7 -2 13 9 30 11 44 4 3 -1 11 -3 18 -4 6 -1 11 -8 9 -15 -1 -7 2
-10 7 -7 5 3 20 -3 32 -15 13 -11 18 -18 12 -14 -7 3 -13 1 -13 -4 0 -6 5 -11
11 -11 8 0 7 -6 -2 -17 -10 -11 -10 -14 -1 -9 20 12 14 -12 -10 -36 -16 -16
-17 -20 -5 -15 23 9 21 -9 -3 -26 -11 -8 -17 -17 -14 -20 4 -4 -4 -4 -16 -2
-24 5 -42 24 -34 36 2 4 -3 9 -11 13 -8 3 -15 12 -15 21 0 8 -5 15 -11 15 -6
0 -9 9 -6 20 3 13 0 20 -10 20 -10 0 -13 6 -9 16 3 8 2 13 -3 10 -5 -3 -11 1
-14 9 -4 10 -1 12 10 8 12 -5 14 -3 8 6 -4 8 -2 17 6 22 19 12 21 11 13 -3z
m131 -10 c5 4 5 2 1 -5 -8 -14 -36 -6 -36 9 0 7 5 6 13 -1 8 -6 18 -7 22 -3z
m-82 -545 c-3 -8 2 -13 13 -13 16 0 17 -2 4 -10 -11 -7 -12 -10 -2 -10 7 0 20
-7 28 -15 9 -8 12 -15 8 -15 -3 0 -2 -6 3 -12 13 -17 12 -48 -1 -48 -6 0 -4
-5 4 -10 8 -5 10 -10 5 -10 -6 0 -11 -9 -11 -20 0 -11 4 -20 8 -20 4 0 8 -4 8
-10 0 -5 8 -19 17 -29 16 -19 21 -33 25 -73 1 -10 6 -18 11 -18 4 0 6 -4 2 -9
-3 -5 0 -13 6 -17 8 -4 7 -9 -2 -15 -10 -6 -7 -10 11 -18 14 -5 21 -10 16 -10
-5 -1 -3 -8 4 -16 6 -8 9 -19 5 -25 -3 -5 1 -10 10 -10 9 0 14 -4 10 -9 -3 -5
2 -16 10 -25 9 -8 16 -18 15 -21 -1 -20 1 -26 8 -21 5 3 9 -1 9 -9 0 -8 -5
-15 -10 -15 -5 0 -3 -8 4 -17 10 -11 10 -14 2 -9 -9 5 -13 0 -13 -14 0 -16 -5
-20 -15 -16 -8 3 -14 2 -14 -2 3 -19 -2 -25 -11 -12 -7 11 -10 11 -10 2 0 -7
-4 -10 -10 -7 -18 11 -51 14 -45 4 4 -5 1 -9 -4 -9 -6 0 -11 5 -11 11 0 8 -5
8 -15 -1 -11 -9 -15 -9 -15 -1 0 7 -5 9 -10 6 -6 -4 -8 -11 -5 -16 7 -10 -24
-1 -42 13 -7 5 -14 5 -17 -1 -4 -6 -13 -8 -21 -4 -8 3 -15 1 -15 -4 0 -5 -9
-9 -20 -9 -10 0 -17 2 -15 4 2 3 0 14 -6 25 -9 15 -8 18 3 11 11 -6 11 -5 -1
9 -11 13 -11 17 -1 17 8 0 10 3 7 7 -4 3 -2 12 4 20 9 10 8 13 -2 13 -11 0
-11 2 1 10 8 5 11 10 5 10 -5 0 -3 5 5 10 13 8 12 10 -4 10 -20 0 -20 0 0 16
10 8 14 13 8 10 -16 -8 -25 29 -11 43 8 8 7 11 -2 11 -8 0 -11 6 -7 16 4 9 1
23 -5 30 -6 8 -8 14 -5 14 4 0 4 5 1 10 -5 8 -11 7 -21 -1 -11 -9 -14 -8 -14
4 0 10 -6 14 -15 11 -8 -4 -15 -1 -15 5 0 9 -6 9 -22 0 -13 -6 -20 -8 -16 -4
4 4 3 17 -3 28 -9 15 -8 18 3 12 10 -6 11 -5 1 5 -10 11 -9 18 4 33 10 10 13
18 8 17 -21 -5 -25 1 -15 19 7 14 6 21 -3 24 -8 3 -7 10 7 25 10 12 21 20 25
19 3 -1 17 6 31 16 13 9 20 17 15 17 -5 0 6 13 25 30 18 16 37 27 41 24 5 -3
9 0 9 7 0 17 27 46 44 46 8 0 12 -6 9 -14z"/>
<path d="M3955 6100 c3 -5 8 -10 11 -10 2 0 4 5 4 10 0 6 -5 10 -11 10 -5 0
-7 -4 -4 -10z"/>
<path d="M4010 5496 c0 -2 8 -10 18 -17 15 -13 16 -12 3 4 -13 16 -21 21 -21
13z"/>
<path d="M6812 7329 c-13 -5 -20 -13 -17 -19 4 -6 3 -10 -2 -9 -23 4 -43 -2
-38 -11 3 -6 -2 -13 -12 -17 -10 -4 -21 -11 -25 -17 -5 -8 -8 -7 -8 1 0 7 -10
2 -23 -10 -13 -12 -21 -28 -18 -36 2 -8 0 -12 -6 -8 -6 4 -13 0 -16 -8 -4 -10
-1 -12 11 -9 15 5 14 3 -2 -10 -10 -8 -15 -20 -10 -27 4 -8 3 -10 -4 -5 -8 5
-11 -5 -8 -34 3 -25 0 -38 -6 -34 -6 4 -6 0 0 -13 6 -11 7 -25 2 -33 -5 -8 -6
-18 -4 -22 11 -18 12 -48 2 -54 -6 -4 -8 -2 -4 4 3 6 3 13 -2 16 -17 10 -8
-29 9 -42 18 -12 16 -47 -2 -36 -5 3 -6 -2 -3 -10 3 -9 11 -13 18 -9 6 4 5 -1
-3 -10 -9 -11 -10 -17 -2 -17 6 0 10 -3 10 -7 -4 -22 3 -25 17 -7 12 14 14 15
11 3 -4 -13 -1 -15 16 -11 19 5 20 3 10 -10 -10 -11 -10 -17 0 -28 9 -10 9
-11 -1 -6 -7 4 -15 1 -18 -8 -3 -9 -10 -13 -15 -10 -5 3 -9 0 -9 -6 0 -6 -5
-8 -12 -4 -10 6 -10 4 0 -8 10 -13 10 -18 1 -24 -8 -5 -10 -3 -4 7 5 8 4 11
-1 6 -11 -10 -14 -58 -2 -51 4 3 9 0 9 -5 5 -44 3 -58 -9 -73 -11 -13 -12 -18
-3 -18 7 0 9 -5 6 -10 -4 -6 -12 -7 -18 -3 -7 4 -5 -2 3 -12 8 -10 10 -16 3
-12 -6 4 -14 3 -18 -3 -3 -5 -2 -10 4 -10 6 0 8 -7 5 -15 -4 -8 -13 -15 -22
-15 -13 0 -12 -3 4 -15 19 -14 19 -14 -1 -15 -15 0 -17 -2 -6 -9 7 -5 11 -13
7 -19 -3 -6 0 -16 7 -24 8 -7 12 -19 9 -27 -3 -8 0 -11 6 -7 6 3 13 2 17 -4 3
-5 -2 -10 -12 -11 -13 0 -12 -3 7 -10 24 -10 24 -11 6 -25 -20 -14 -20 -14 0
-14 16 0 17 -2 4 -10 -13 -8 -13 -10 2 -10 14 0 15 -5 6 -32 -5 -18 -10 -39
-11 -45 0 -10 -3 -10 -15 0 -13 10 -14 9 -3 -10 9 -18 9 -23 -1 -24 -7 0 -4
-4 7 -9 16 -7 17 -9 3 -9 -9 -1 -20 -5 -23 -11 -3 -6 1 -7 10 -4 11 5 14 2 9
-10 -3 -9 -9 -14 -13 -12 -3 2 -6 -6 -6 -19 0 -13 3 -21 6 -19 4 2 10 -3 13
-12 3 -8 2 -12 -4 -9 -6 3 -10 1 -10 -4 0 -6 8 -11 17 -11 15 0 14 -2 -3 -15
-10 -8 -14 -15 -9 -14 22 3 29 -2 15 -11 -10 -6 -11 -10 -2 -10 6 0 12 -7 12
-16 0 -9 -5 -12 -12 -8 -6 4 -8 3 -5 -3 4 -6 18 -8 31 -6 20 4 24 1 21 -13 -2
-11 -4 -25 -4 -31 -1 -7 -6 -13 -12 -13 -5 0 -7 5 -3 12 4 7 3 8 -5 4 -6 -4
-9 -11 -6 -15 2 -5 -3 -17 -11 -27 -9 -10 -13 -12 -9 -4 4 8 -1 6 -10 -5 -9
-11 -18 -19 -20 -17 -3 1 -5 -1 -4 -5 0 -5 8 -7 17 -5 10 1 7 -4 -8 -12 -16
-10 -20 -16 -10 -16 10 -1 9 -4 -5 -10 -18 -8 -18 -9 -2 -9 10 -1 15 -6 12
-11 -4 -6 -12 -8 -18 -4 -7 3 -3 -2 8 -11 20 -17 20 -17 -2 -10 -14 4 -23 2
-23 -4 0 -6 3 -10 8 -10 18 3 22 -2 13 -19 -12 -23 2 -48 20 -36 12 6 12 5 0
-9 -10 -13 -10 -17 -1 -17 7 0 10 -8 7 -20 -3 -11 -1 -18 4 -14 5 3 10 0 10
-5 1 -6 2 -17 3 -23 1 -7 -3 -19 -8 -27 -9 -12 -7 -13 8 -8 16 6 17 5 7 -7
-15 -18 -11 -47 9 -64 8 -8 9 -11 3 -7 -22 11 -14 -4 8 -16 17 -9 20 -8 14 2
-5 8 -4 10 3 5 7 -4 12 -16 12 -27 0 -11 4 -18 9 -15 5 3 11 -5 13 -19 4 -21
3 -23 -9 -14 -11 9 -12 8 -7 -5 3 -9 1 -16 -6 -16 -6 0 -8 -4 -5 -10 3 -5 -1
-10 -9 -10 -8 0 -18 -5 -22 -12 -5 -8 -2 -9 11 -4 15 5 16 4 5 -9 -7 -8 -17
-12 -24 -8 -6 3 -2 -4 8 -16 20 -22 20 -22 0 -15 -12 5 -6 -5 17 -29 35 -35
42 -58 24 -86 -5 -9 -4 -12 2 -8 6 4 14 0 17 -9 3 -8 2 -12 -4 -9 -6 3 -10 3
-11 -2 0 -4 -2 -18 -3 -30 -2 -15 3 -23 13 -23 14 0 14 -2 1 -10 -8 -5 -11
-10 -5 -10 5 0 4 -5 -3 -12 -15 -15 -15 -28 -1 -28 5 0 7 5 3 12 -5 7 -3 8 6
3 10 -6 9 -11 -5 -22 -11 -7 -13 -13 -6 -13 9 0 8 -5 -3 -16 -18 -17 -21 -28
-7 -19 6 3 15 -4 21 -16 8 -15 9 -19 1 -15 -6 4 -11 2 -11 -4 0 -6 -4 -8 -10
-5 -6 4 -7 -1 -3 -11 5 -14 2 -16 -15 -12 -12 3 -20 3 -19 -1 1 -4 -11 -20
-28 -35 -16 -15 -24 -25 -17 -21 7 4 12 0 12 -10 0 -9 -4 -14 -9 -11 -5 3 -12
-1 -15 -10 -4 -10 -2 -13 7 -8 8 5 7 2 -2 -9 -9 -12 -10 -17 -2 -17 7 0 9 -5
5 -11 -5 -8 -1 -8 14 0 18 9 19 8 14 -11 -3 -14 -1 -19 6 -14 7 4 12 3 12 -3
0 -5 -6 -12 -12 -14 -8 -3 -6 -6 5 -6 9 -1 17 -6 17 -12 0 -5 4 -8 9 -4 5 3
13 0 17 -6 4 -8 3 -9 -4 -5 -7 4 -12 2 -12 -3 0 -6 5 -11 12 -11 6 0 3 -6 -7
-14 -11 -8 -24 -12 -29 -9 -5 4 -6 1 -1 -6 5 -9 10 -10 18 -2 6 6 15 11 20 11
5 0 -1 -9 -14 -19 -14 -11 -26 -15 -30 -9 -3 5 -9 -5 -12 -22 -4 -17 -11 -29
-17 -25 -6 3 -7 0 -4 -9 3 -9 10 -13 15 -10 5 3 9 1 9 -5 0 -5 -6 -12 -12 -15
-7 -4 -3 -4 10 -2 18 3 21 2 12 -9 -8 -9 -5 -14 12 -19 23 -6 23 -7 4 -21 -17
-13 -17 -15 -4 -15 9 0 20 -4 23 -10 4 -6 -1 -7 -11 -3 -12 4 -15 3 -10 -5 4
-7 1 -12 -7 -12 -7 0 -14 -7 -14 -15 0 -8 5 -15 11 -15 6 0 4 -5 -4 -10 -12
-8 -12 -10 5 -10 20 -1 20 -1 1 -15 -11 -8 -17 -16 -13 -16 4 -1 11 -2 16 -3
5 0 13 -5 18 -10 5 -5 2 -6 -6 -1 -11 7 -13 2 -8 -24 4 -20 3 -30 -3 -26 -6 3
-10 0 -10 -9 0 -8 6 -17 13 -20 6 -4 2 -4 -10 -2 -15 3 -20 0 -16 -10 3 -8 10
-11 17 -7 6 4 4 -2 -4 -12 -11 -14 -12 -19 -3 -22 10 -4 9 -8 -2 -19 -16 -16
-9 -47 9 -37 6 3 6 1 -1 -8 -7 -7 -13 -17 -13 -22 0 -4 6 -5 13 -1 8 5 8 3 -2
-9 -11 -14 -11 -18 5 -24 16 -6 16 -7 -2 -14 -17 -7 -17 -8 -1 -8 9 -1 17 -6
17 -12 0 -5 -5 -7 -11 -3 -8 5 -8 1 0 -14 16 -30 14 -36 -6 -21 -17 13 -17 13
0 -7 9 -11 14 -24 10 -27 -3 -4 -1 -7 5 -7 6 0 9 -7 5 -17 -4 -10 -2 -14 5 -9
6 3 13 2 16 -3 4 -5 1 -13 -5 -17 -8 -5 -9 -3 -4 7 5 8 4 11 0 7 -5 -5 -10
-20 -11 -34 -3 -25 -2 -25 12 -8 9 11 13 13 9 7 -3 -7 -1 -22 5 -33 9 -17 8
-19 -7 -13 -15 6 -16 5 -3 -9 8 -9 18 -14 21 -12 3 2 6 -3 6 -10 0 -8 -6 -12
-13 -9 -6 2 -14 0 -17 -4 -3 -5 4 -10 15 -10 12 -1 26 -7 32 -14 8 -9 7 -10
-6 -6 -12 4 -15 2 -11 -9 3 -7 9 -14 13 -14 4 0 10 -9 13 -20 3 -13 1 -18 -6
-14 -7 3 -4 -1 6 -9 9 -8 17 -20 17 -28 0 -11 -2 -11 -11 1 -9 13 -10 13 -6 0
2 -8 10 -14 16 -12 6 1 21 -7 33 -18 16 -15 25 -17 35 -9 10 9 13 8 13 -1 0
-8 3 -11 6 -7 3 3 17 2 30 -3 17 -7 24 -6 24 3 0 8 4 7 10 -3 7 -11 10 -11 10
-2 0 10 5 10 20 2 14 -8 20 -8 20 0 0 6 5 8 10 5 6 -3 10 0 10 7 0 8 3 9 8 3
9 -13 32 -17 32 -6 0 4 11 7 25 6 14 -2 25 0 25 5 0 4 10 6 23 5 13 -2 34 6
48 17 13 11 17 17 9 13 -8 -4 -6 1 4 9 18 15 15 21 -8 17 -5 -1 -4 5 4 13 15
19 24 21 14 4 -5 -7 -3 -8 5 -3 9 5 10 10 2 18 -15 15 -14 30 2 21 9 -5 9 -4
0 6 -9 10 -9 18 -1 34 18 32 18 45 0 39 -11 -3 -13 -2 -6 4 6 4 14 18 18 30 6
17 4 22 -7 18 -8 -4 -14 0 -14 9 0 8 4 13 9 10 5 -4 5 3 -1 15 -30 58 -31 60
-19 67 7 4 8 3 4 -4 -4 -7 -3 -12 2 -12 15 0 23 28 10 32 -6 2 -12 14 -13 26
-1 11 2 19 7 16 4 -3 8 0 8 5 0 6 -5 11 -11 11 -5 0 -7 5 -4 10 4 6 10 8 15 5
5 -3 3 6 -4 21 -10 17 -11 35 -6 55 6 20 5 27 -2 23 -6 -4 -8 1 -3 16 4 14 3
20 -3 16 -5 -3 -12 5 -14 18 -4 18 -1 23 9 19 10 -4 8 5 -7 31 -11 21 -16 35
-10 31 12 -8 13 5 0 25 -6 9 -5 19 2 28 9 10 8 16 -3 24 -11 8 -11 9 3 5 20
-7 33 20 18 38 -6 8 -6 16 3 24 10 11 7 12 -13 6 -25 -7 -25 -7 -5 10 11 9 15
14 9 11 -6 -3 -20 2 -30 10 -10 9 -14 13 -8 10 6 -3 10 4 9 16 -1 12 -7 24
-13 26 -8 2 -8 8 3 18 8 8 12 21 9 29 -4 9 0 15 7 15 11 0 11 3 -1 10 -12 8
-12 10 5 10 19 1 19 1 2 11 -13 7 -16 17 -11 32 6 18 5 20 -8 10 -12 -10 -14
-7 -12 18 2 25 0 28 -12 18 -12 -10 -13 -9 -8 5 3 9 0 24 -7 33 -10 12 -10 15
-1 9 7 -4 12 -2 12 4 0 6 5 8 10 5 17 -11 11 7 -7 20 -15 11 -14 12 9 10 20
-2 25 1 21 12 -5 12 -7 12 -14 1 -5 -7 -9 -10 -10 -5 -1 4 -3 12 -4 17 -1 6
-3 17 -4 26 0 9 -7 14 -14 11 -15 -6 -17 27 -2 40 4 5 5 2 1 -4 -4 -7 -2 -13
3 -13 14 0 14 13 -1 28 -9 9 -8 12 4 12 9 0 20 5 24 12 5 7 3 8 -7 3 -11 -7
-11 -5 1 11 8 10 20 22 25 26 6 5 5 8 -4 8 -11 0 -11 3 0 17 12 15 12 16 -3
10 -13 -4 -15 -2 -11 10 4 10 2 14 -5 9 -6 -3 -13 -2 -16 3 -4 5 -1 13 5 17 8
5 9 3 4 -6 -5 -9 -4 -11 4 -6 6 4 8 13 4 19 -4 7 -9 21 -10 32 -2 16 -1 17 6
5 5 -8 7 -18 4 -24 -3 -5 -1 -6 6 -2 6 4 9 11 6 16 -3 5 -6 25 -7 45 -1 19 -5
35 -10 35 -5 0 -7 -4 -4 -8 3 -5 -1 -9 -8 -9 -7 0 -13 6 -13 13 0 7 4 11 9 8
4 -3 8 2 8 10 0 26 1 30 13 46 10 13 10 13 -4 2 -15 -11 -17 -10 -15 13 0 16
7 25 18 25 20 0 32 16 19 25 -6 3 -8 12 -4 20 3 9 -1 15 -10 15 -8 0 -18 -7
-21 -16 -9 -22 -8 -24 8 -18 8 3 17 1 21 -5 6 -11 -29 -10 -41 1 -11 11 16 47
38 51 l23 4 -22 2 c-22 1 -22 2 -5 19 9 11 20 17 24 15 4 -2 5 2 2 10 -3 8 4
21 14 29 20 13 19 14 -9 30 -16 10 -29 13 -29 8 0 -6 -5 -10 -11 -10 -8 0 -7
5 1 15 9 11 16 13 24 5 5 -5 15 -10 21 -10 5 0 2 5 -8 11 -9 6 -15 14 -12 20
4 5 -4 5 -19 -1 -17 -6 -27 -6 -32 2 -4 6 -3 8 4 4 6 -3 13 -2 16 3 3 5 -1 12
-10 15 -8 3 -12 10 -9 16 4 6 12 8 18 4 7 -3 3 2 -7 10 -11 9 -14 16 -7 16 7
0 9 4 6 10 -3 5 0 7 8 4 21 -8 29 34 9 47 -13 8 -10 9 13 4 28 -6 29 -5 10 8
-11 9 -24 13 -29 10 -5 -4 -6 -1 -2 6 4 6 11 9 15 6 5 -2 7 6 6 18 -1 12 -3
28 -4 35 0 7 -6 10 -13 6 -7 -4 -8 -3 -4 5 4 6 12 8 18 5 8 -5 9 -1 4 11 -6
18 -6 18 15 -1 l22 -19 -16 25 c-12 18 -13 29 -6 40 9 12 10 12 5 -3 -3 -11
-2 -16 4 -12 6 3 10 15 10 26 0 10 6 19 13 19 8 0 7 3 -3 10 -8 5 -11 12 -7
16 4 4 2 13 -4 21 -6 7 -8 13 -5 13 4 0 2 9 -4 20 -8 16 -8 20 4 20 23 0 28
31 9 53 -10 11 -12 17 -4 12 9 -5 12 -3 9 6 -3 8 2 22 11 32 8 10 11 18 6 17
-6 -2 -17 -2 -25 -1 -12 1 -12 3 2 12 11 6 15 16 11 26 -5 12 -3 14 8 8 9 -5
8 -1 -3 11 -13 15 -16 33 -14 74 2 30 7 63 11 73 4 10 3 17 -5 17 -6 0 -8 -4
-5 -10 3 -5 2 -10 -4 -10 -5 0 -8 -9 -6 -20 2 -11 0 -20 -4 -20 -5 0 -9 15
-10 33 0 17 -2 51 -4 74 -2 24 -1 40 2 37 3 -3 6 -18 6 -32 0 -15 5 -28 10
-29 6 -2 10 5 10 15 0 9 4 23 8 30 5 8 4 11 -4 10 -6 -2 -14 3 -17 11 -3 10 0
11 9 5 12 -6 12 -5 1 8 -9 11 -10 18 -2 23 12 8 4 25 -13 25 -8 0 -8 -3 1 -9
11 -6 10 -10 -4 -15 -9 -3 -19 -4 -22 -1 -3 3 -1 5 5 5 11 0 12 6 15 70 1 34
-2 44 -12 42 -11 -3 -11 0 0 12 10 13 10 19 -1 33 -13 15 -12 15 8 3 17 -11
19 -17 11 -27 -8 -10 -7 -12 4 -8 9 4 14 21 14 54 0 41 -2 46 -14 35 -7 -8
-16 -14 -20 -14 -3 0 -1 5 6 12 15 15 16 31 0 22 -7 -4 -8 -3 -4 5 4 6 12 8
18 5 6 -4 9 -1 6 7 -3 8 1 20 9 27 17 17 8 33 -15 25 -15 -6 -15 -5 -3 10 7 9
17 14 22 11 16 -9 10 3 -8 17 -11 9 -14 10 -9 2 5 -9 2 -11 -9 -7 -14 6 -12
10 9 24 15 9 23 20 19 24 -4 4 -8 18 -9 32 -1 19 3 24 15 19 11 -3 10 0 -3 10
-14 11 -16 15 -5 15 12 0 12 2 0 9 -11 7 -11 9 0 14 11 4 11 6 1 6 -7 1 -10 6
-7 11 4 6 1 9 -6 8 -6 -2 -14 3 -17 11 -3 9 0 11 9 6 8 -5 6 1 -4 12 -17 19
-17 21 -1 27 15 6 15 8 -2 29 -10 12 -15 19 -11 15 5 -3 17 2 28 13 22 22 25
34 7 23 -10 -6 -10 -4 0 7 6 7 12 19 12 27 0 12 -3 12 -17 1 -11 -10 -14 -10
-9 -1 4 6 3 12 -2 12 -23 0 -20 42 4 63 28 24 31 37 7 37 -17 1 -17 1 0 11 21
12 13 29 -14 29 -11 0 -17 5 -14 10 4 6 -6 10 -24 10 -16 0 -31 -5 -33 -10 -2
-6 -9 0 -17 12 -13 21 -13 22 2 10 10 -9 17 -10 22 -2 4 6 3 10 -2 9 -4 -1
-10 0 -13 1 -24 9 -50 4 -50 -9 0 -14 -2 -14 -11 -1 -9 12 -10 11 -6 -5 3 -18
-1 -21 -29 -22 -35 -1 -41 6 -24 23 7 7 6 11 -4 11 -8 0 -13 -4 -10 -9 9 -14
-14 -9 -29 7 -12 11 -17 12 -20 2 -4 -9 -6 -9 -6 1 -1 14 -7 14 -39 1z m323
-99 c-3 -5 -12 -10 -18 -10 -7 0 -6 4 3 10 19 12 23 12 15 0z m-8 -380 c3 -22
-12 -35 -23 -19 -4 8 -3 9 5 5 8 -5 10 0 7 19 -3 15 -2 25 1 21 4 -4 8 -15 10
-26z m8 -100 c-3 -5 -14 -10 -23 -9 -14 0 -13 2 3 9 27 11 27 11 20 0z m-5
-110 c0 -5 -4 -10 -10 -10 -5 0 -10 5 -10 10 0 6 5 10 10 10 6 0 10 -4 10 -10z
m0 -480 c0 -5 -5 -10 -11 -10 -5 0 -7 5 -4 10 3 6 8 10 11 10 2 0 4 -4 4 -10z
m10 -138 c0 -13 -12 -22 -22 -16 -10 6 -1 24 13 24 5 0 9 -4 9 -8z m-25 -61
c3 -5 2 -12 -3 -15 -5 -3 -9 1 -9 9 0 17 3 19 12 6z m15 -35 c0 -3 -4 -8 -10
-11 -5 -3 -10 -1 -10 4 0 6 5 11 10 11 6 0 10 -2 10 -4z m-40 -167 c0 -5 -4
-9 -8 -9 -5 0 -9 7 -9 15 0 8 4 12 9 9 4 -3 8 -9 8 -15z m40 -243 c0 -2 -7 -9
-15 -16 -13 -11 -14 -10 -9 4 5 14 24 23 24 12z m10 -1016 c0 -5 -7 -7 -15 -4
-8 4 -15 8 -15 10 0 2 7 4 15 4 8 0 15 -4 15 -10z"/>
<path d="M7473 7313 c5 -8 -1 -11 -20 -9 -16 1 -34 -2 -40 -7 -9 -6 -13 -6
-13 1 0 6 -7 9 -15 6 -8 -4 -13 -10 -10 -14 6 -10 -15 -8 -31 3 -7 4 -15 -1
-18 -10 -5 -13 -9 -14 -15 -5 -4 7 -15 10 -24 6 -9 -3 -14 -11 -10 -18 4 -6
-1 -5 -11 3 -9 8 -16 10 -15 5 3 -20 -1 -35 -10 -30 -5 3 -8 -5 -8 -19 0 -16
4 -22 11 -18 6 4 5 0 -2 -9 -10 -13 -10 -18 -1 -24 8 -5 9 -3 4 6 -5 8 -4 11
3 6 12 -7 5 -37 -12 -48 -7 -5 -5 -8 4 -8 13 0 13 -1 0 -10 -13 -8 -13 -10 -1
-10 11 0 10 -4 -4 -13 -14 -11 -15 -16 -5 -22 9 -5 11 -4 6 3 -4 7 -2 12 3 12
14 0 14 -17 0 -26 -8 -4 -7 -9 2 -15 11 -7 9 -9 -6 -9 -17 0 -17 -2 -5 -10 8
-5 10 -10 5 -10 -6 0 -10 -20 -10 -44 0 -24 3 -42 8 -39 4 2 14 -2 21 -10 11
-11 12 -17 3 -27 -9 -10 -7 -11 9 -6 14 4 28 1 37 -8 11 -11 17 -12 27 -3 10
10 11 7 5 -13 -5 -19 -4 -21 4 -10 8 12 14 13 29 3 11 -6 24 -8 33 -3 8 5 19
4 27 -2 8 -7 16 -8 20 -2 11 15 33 16 50 2 9 -8 13 -8 9 -2 -4 7 0 14 8 18 8
3 15 0 16 -7 0 -7 4 -3 9 8 5 11 9 15 9 8 1 -17 29 -10 46 13 8 10 15 15 14 9
-3 -24 2 -27 17 -9 8 10 12 12 8 4 -6 -12 -4 -13 7 -2 16 14 33 16 24 2 -3 -6
1 -7 9 -4 9 3 13 11 10 16 -4 6 3 5 15 -1 17 -10 20 -9 15 4 -4 8 -1 15 5 15
6 0 11 -6 11 -12 0 -9 3 -9 8 -2 8 12 43 28 55 25 4 -1 3 9 -4 21 -6 13 -8 20
-4 16 5 -4 15 -2 24 5 14 10 14 10 4 -4 -10 -13 -10 -16 2 -16 7 0 14 3 13 6
-2 22 4 31 15 25 8 -5 7 -2 -2 10 -13 15 -12 18 7 23 12 3 19 10 16 15 -3 5 2
19 13 31 20 24 23 44 9 66 -7 11 -5 13 9 7 18 -6 18 -6 -1 15 -10 12 -14 19
-7 16 15 -9 5 29 -12 43 -7 6 -11 19 -8 29 4 15 -2 18 -46 17 -40 -1 -50 2
-46 13 4 11 3 12 -10 1 -12 -10 -15 -10 -15 4 0 14 -4 15 -21 5 -15 -8 -19 -8
-15 0 4 6 3 11 -3 11 -5 0 -12 -6 -14 -12 -4 -9 -6 -9 -6 -1 -1 6 -10 9 -22 6
-12 -4 -25 0 -30 8 -6 9 -9 10 -9 2 0 -14 -58 -15 -66 -1 -3 5 -12 4 -20 -3
-11 -9 -14 -9 -14 0 0 7 -4 10 -9 7 -5 -4 -12 0 -14 6 -4 10 -6 9 -6 -1 -1
-11 -4 -11 -18 0 -10 8 -14 9 -10 2z m277 -367 c0 -3 -4 -8 -10 -11 -5 -3 -10
-1 -10 4 0 6 5 11 10 11 6 0 10 -2 10 -4z"/>
<path d="M6620 6920 c0 -5 5 -10 11 -10 5 0 7 5 4 10 -3 6 -8 10 -11 10 -2 0
-4 -4 -4 -10z"/>
<path d="M3525 6789 c-4 -6 -5 -12 -2 -15 2 -3 7 2 10 11 7 17 1 20 -8 4z"/>
<path d="M4881 6773 c-6 -10 -11 -14 -11 -10 0 4 -6 2 -14 -5 -8 -7 -12 -16
-9 -20 2 -5 -1 -8 -6 -8 -6 0 -11 -5 -11 -11 0 -5 4 -8 9 -4 5 3 12 1 16 -5 4
-6 11 -8 16 -5 5 4 9 1 9 -6 0 -8 3 -9 13 0 11 8 18 6 33 -11 10 -12 13 -18 7
-14 -7 4 -13 3 -13 -2 0 -5 -12 -14 -26 -20 -14 -7 -22 -17 -19 -22 3 -6 1
-10 -5 -10 -6 0 -8 -5 -4 -12 4 -6 7 -30 7 -52 0 -25 6 -45 15 -52 12 -9 12
-13 2 -19 -9 -6 -11 -4 -5 6 5 8 4 10 0 6 -15 -14 -15 -39 1 -33 8 3 14 1 14
-4 0 -6 -8 -10 -17 -10 -14 0 -15 -2 -4 -9 11 -7 11 -9 0 -14 -10 -4 -10 -6
-1 -6 6 -1 12 -6 12 -12 0 -5 -4 -7 -10 -4 -5 3 -10 2 -10 -4 0 -5 6 -11 13
-14 9 -3 9 -7 -1 -19 -10 -13 -10 -17 4 -22 15 -6 15 -8 -2 -29 -10 -12 -15
-19 -10 -15 14 12 35 -24 25 -43 -6 -13 -4 -16 9 -15 9 0 17 -4 17 -11 0 -6 3
-15 8 -19 4 -4 7 -12 7 -18 0 -6 -5 -4 -10 4 -7 12 -9 10 -8 -7 2 -14 7 -19
18 -15 13 5 13 4 0 -13 -14 -17 -13 -18 5 -12 20 7 20 7 1 -8 -20 -15 -20 -15
0 -15 16 0 17 -2 4 -10 -10 -6 -11 -10 -2 -10 6 0 12 -5 12 -11 0 -5 -4 -7
-10 -4 -6 3 -7 -1 -4 -9 3 -9 9 -14 13 -11 4 2 8 -3 8 -11 0 -8 -5 -13 -12
-11 -7 3 -10 -7 -9 -26 1 -17 7 -33 13 -35 6 -2 1 -13 -11 -24 -13 -11 -17
-16 -9 -12 11 5 13 1 9 -20 -3 -14 -1 -29 5 -33 5 -3 7 -1 3 5 -3 6 -2 13 3
16 10 7 9 -20 -2 -30 -12 -12 -8 -24 9 -24 8 0 12 -5 9 -10 -4 -6 -12 -7 -18
-3 -7 4 -6 -1 2 -10 9 -12 17 -14 26 -7 8 7 10 2 7 -20 -4 -28 2 -34 29 -32 3
0 5 -10 5 -23 0 -13 -3 -22 -6 -20 -4 2 -7 -2 -7 -9 0 -8 6 -12 14 -9 11 4 11
0 4 -21 -7 -17 -7 -27 1 -32 7 -5 8 -2 3 7 -5 8 -4 10 0 6 11 -10 16 -39 5
-32 -4 3 -10 -2 -14 -10 -3 -8 -2 -14 2 -14 28 5 35 -2 16 -17 -16 -13 -16
-15 -1 -10 9 3 17 1 17 -4 0 -6 -8 -10 -17 -10 -15 0 -16 -2 -3 -10 8 -5 11
-10 6 -10 -5 0 -2 -8 5 -17 8 -10 9 -14 2 -10 -16 10 -24 -5 -12 -23 6 -10 9
-11 9 -2 0 6 4 12 8 12 5 0 9 -6 9 -12 1 -39 23 -73 35 -54 6 8 8 8 8 -1 0 -6
-5 -15 -11 -18 -6 -5 -3 -13 10 -22 14 -9 21 -25 21 -46 0 -24 3 -28 10 -17 5
8 10 11 10 5 0 -5 -10 -26 -22 -45 -24 -38 -30 -55 -30 -85 0 -36 9 -59 23
-63 11 -3 11 -1 -1 7 -12 9 -9 11 15 8 24 -3 30 -9 31 -28 1 -13 -6 -30 -15
-37 -12 -10 -12 -12 -1 -7 8 4 6 -1 -4 -9 -11 -9 -14 -16 -8 -16 7 0 12 -5 12
-11 0 -5 -6 -7 -12 -3 -9 5 -8 2 1 -9 8 -10 11 -20 8 -24 -4 -3 1 -12 11 -20
9 -8 11 -12 5 -8 -7 3 -13 2 -13 -3 0 -6 6 -12 14 -15 8 -3 13 -17 11 -36 -2
-19 1 -28 8 -24 6 4 8 0 4 -10 -4 -10 -1 -17 6 -17 8 0 6 -4 -3 -10 -13 -9
-13 -10 0 -10 13 0 13 -1 0 -10 -13 -9 -13 -10 0 -10 13 0 13 -1 0 -10 -10 -6
-11 -10 -2 -10 6 0 12 -5 12 -11 0 -5 -6 -7 -12 -3 -10 6 -10 5 -1 -8 7 -8 10
-18 6 -21 -3 -4 0 -13 7 -22 11 -13 10 -15 -1 -10 -10 4 -14 -2 -14 -19 0 -13
3 -22 7 -20 4 2 9 0 13 -6 3 -5 0 -10 -7 -10 -8 0 -9 -3 -3 -8 17 -12 41 -47
28 -38 -20 11 -15 -12 5 -24 16 -11 16 -11 0 -6 -20 6 -34 -10 -16 -17 7 -3 4
-6 -7 -6 -17 -1 -17 -3 -5 -11 11 -7 11 -10 2 -10 -7 0 -10 -5 -7 -10 4 -6 11
-8 16 -5 5 4 9 1 9 -4 0 -6 -5 -11 -12 -11 -6 0 -4 -7 5 -18 10 -10 17 -24 17
-30 0 -7 4 -12 8 -12 5 0 14 -12 20 -26 10 -20 10 -24 0 -18 -10 6 -10 5 -1
-7 7 -9 13 -31 14 -50 2 -19 6 -39 11 -46 5 -7 4 -14 -2 -18 -8 -5 -6 -13 6
-26 9 -10 14 -19 10 -19 -4 0 0 -7 8 -16 9 -8 13 -20 10 -26 -4 -6 -2 -8 3 -5
6 4 19 -3 29 -16 19 -21 19 -21 -1 -7 -19 14 -19 14 -6 -2 7 -10 19 -18 26
-18 8 0 15 -5 17 -11 3 -9 10 -9 27 0 13 7 20 18 17 26 -3 8 1 21 9 29 10 10
11 16 4 18 -8 3 -6 9 4 20 9 8 13 19 9 23 -4 5 4 1 18 -8 16 -11 25 -27 26
-47 1 -17 -2 -30 -6 -30 -11 0 -7 -34 5 -42 6 -5 4 -8 -5 -8 -13 0 -13 -1 0
-10 9 -6 10 -10 3 -10 -8 0 -9 -9 -3 -30 6 -22 5 -34 -6 -45 -12 -12 -12 -15
-2 -15 10 0 11 -2 0 -8 -7 -5 -15 -22 -18 -38 -3 -16 -9 -30 -15 -32 -5 -2 -9
-10 -9 -18 0 -9 -5 -12 -12 -8 -8 5 -9 2 -5 -9 4 -10 1 -17 -6 -17 -8 0 -6 -4
3 -10 8 -5 11 -10 5 -10 -5 0 -3 -5 5 -10 13 -9 13 -10 0 -10 -13 0 -13 -1 0
-10 11 -7 12 -12 3 -21 -6 -6 -9 -18 -6 -27 5 -11 3 -13 -7 -7 -7 4 -2 -6 10
-23 23 -31 57 -53 45 -29 -4 6 0 4 8 -5 15 -19 32 -25 22 -8 -3 5 0 7 9 4 8
-3 17 -13 21 -22 5 -14 7 -14 15 -2 8 13 10 13 10 1 0 -11 4 -10 16 5 8 10 13
13 9 7 -3 -7 -2 -13 2 -13 5 0 15 6 22 13 11 10 12 9 6 -3 -8 -13 -7 -13 8 -1
14 11 17 11 17 0 0 -11 2 -11 8 -1 5 7 16 10 25 6 11 -4 17 -1 17 7 0 10 3 10
11 2 6 -6 18 -9 25 -6 8 3 14 0 14 -6 0 -9 5 -9 20 -1 11 6 26 8 32 4 7 -5 8
-3 4 5 -5 8 0 14 13 18 11 3 18 9 15 14 -3 5 1 6 8 4 8 -3 24 6 36 20 12 14
17 25 11 25 -5 0 -7 5 -4 10 4 6 1 9 -7 8 -7 -2 -12 3 -10 10 2 14 -19 12 -30
-3 -5 -6 -8 -5 -8 3 0 6 -9 12 -20 12 -11 0 -20 5 -20 11 0 5 4 8 9 4 5 -3 13
0 17 6 4 7 3 9 -4 5 -6 -3 -13 -2 -17 4 -3 5 -2 10 4 10 6 0 8 6 5 14 -3 8 0
17 5 21 6 3 8 11 5 17 -4 6 -3 8 3 5 6 -4 19 1 29 9 10 9 12 12 4 8 -13 -7
-13 -6 -1 10 19 23 23 60 5 45 -9 -8 -11 -5 -7 10 3 12 13 21 22 21 13 0 13 2
2 9 -11 7 -9 10 9 16 18 6 20 9 9 16 -10 6 -11 9 -1 9 6 0 12 9 12 19 0 11 4
22 9 25 4 3 8 28 7 55 -1 33 3 52 11 55 7 3 10 12 7 21 -4 8 -1 15 7 15 7 0 9
3 6 6 -3 4 5 15 18 26 14 11 22 24 19 30 -4 6 -2 8 3 5 6 -4 17 1 24 10 12 14
12 16 -1 8 -12 -6 -13 -5 -2 6 16 17 15 29 -3 29 -8 0 -12 6 -9 14 3 8 1 17
-5 20 -12 8 -4 34 18 59 13 16 13 19 1 27 -11 7 -12 10 -2 10 7 0 10 5 7 10
-14 22 -15 63 -3 78 10 12 10 14 1 8 -9 -5 -11 -2 -7 8 3 9 10 14 14 11 10 -6
22 24 14 36 -3 5 -1 9 4 9 5 0 8 10 7 23 -1 12 4 32 12 44 10 18 10 21 0 17
-8 -3 -13 3 -13 15 0 16 3 18 15 8 12 -9 13 -9 7 0 -15 25 -14 52 1 57 8 4 13
13 9 21 -4 10 1 15 15 15 11 0 18 4 15 9 -3 5 1 14 10 21 8 7 13 19 10 27 -3
7 -2 13 2 13 11 0 9 61 -2 79 -7 10 -6 12 4 6 9 -5 11 -4 6 3 -4 7 -14 12 -22
12 -9 0 -12 5 -8 12 5 7 2 9 -9 5 -22 -8 -71 31 -57 47 5 7 6 17 2 21 -4 5 -1
4 7 0 11 -6 13 -4 8 8 -3 9 -1 17 5 19 6 2 12 23 12 46 1 23 4 42 8 42 4 0 4
7 1 17 -5 12 -3 14 7 8 10 -6 12 -4 7 9 -4 9 -3 15 2 12 5 -3 15 1 22 10 15
19 20 54 6 54 -5 0 -4 6 2 14 8 10 9 16 1 21 -7 4 -5 13 5 27 11 17 12 25 3
35 -9 11 -8 13 3 11 8 -2 15 7 17 20 2 12 8 22 14 22 6 0 5 7 -3 17 -10 11
-10 14 -1 9 6 -4 2 10 -10 31 -17 29 -18 35 -5 24 22 -18 22 -7 0 15 -13 13
-15 18 -5 22 10 3 10 7 1 18 -9 11 -9 17 1 29 6 8 9 19 5 25 -4 6 -1 9 7 8 7
-2 12 3 11 10 -2 6 2 12 8 12 6 0 8 7 5 16 -4 9 -2 13 5 8 8 -4 9 1 4 15 -4
13 -2 21 6 21 9 0 8 4 -1 15 -12 14 -7 20 14 16 5 -1 4 5 -4 13 -11 14 -9 16
9 16 11 0 21 5 21 11 0 5 -4 7 -10 4 -6 -3 -7 1 -4 9 3 9 10 14 14 11 9 -6 7
21 -2 30 -10 11 4 45 16 38 7 -4 7 -1 -1 8 -10 12 -10 18 0 29 10 10 9 12 -3
6 -12 -6 -12 -5 1 6 17 14 14 42 -3 32 -7 -4 -8 -2 -4 4 4 7 15 12 24 12 15 1
15 2 -1 11 -10 6 -14 15 -10 22 4 7 -1 6 -10 -2 -15 -12 -17 -12 -11 3 4 10 1
16 -7 16 -10 0 -10 3 -2 11 15 15 5 39 -16 40 -13 0 -13 2 3 8 17 7 17 8 2 24
-10 9 -12 17 -6 17 7 0 7 7 -1 23 -11 19 -10 20 2 10 12 -10 15 -8 15 7 0 10
-5 16 -11 13 -5 -4 2 6 17 21 15 15 32 25 38 21 6 -3 10 3 10 15 0 14 4 19 13
14 9 -6 9 -5 0 8 -17 19 -4 32 15 15 13 -9 14 -9 8 1 -4 6 -3 12 2 12 5 0 7
11 4 25 -2 14 -9 25 -14 25 -5 0 -6 6 -2 13 5 8 2 8 -9 -2 -15 -12 -17 -11
-17 3 0 9 -5 16 -11 16 -5 0 -7 -5 -3 -12 4 -7 3 -8 -5 -4 -6 4 -9 12 -6 17 4
5 0 9 -7 9 -7 0 -2 9 12 20 14 11 21 20 17 20 -5 0 -2 7 6 15 12 12 13 20 4
39 -7 13 -16 22 -22 19 -5 -3 -5 0 2 7 14 15 6 43 -10 33 -6 -3 -7 -1 -3 6 4
6 12 9 17 6 5 -4 9 0 9 9 0 8 2 20 3 28 2 7 2 10 0 6 -9 -15 -25 -8 -19 8 5
14 4 15 -8 5 -11 -9 -15 -9 -19 1 -4 11 -6 10 -6 0 -1 -8 -6 -10 -13 -6 -6 4
-32 7 -57 6 -34 -2 -42 0 -31 8 9 6 10 10 3 10 -6 0 -15 -5 -18 -10 -4 -6 -10
-8 -14 -6 -4 3 -20 -4 -37 -15 -16 -10 -24 -19 -19 -19 6 0 11 -9 11 -19 0
-16 -3 -18 -15 -8 -12 9 -13 9 -7 0 14 -24 -4 -35 -29 -19 -15 10 -26 12 -30
6 -4 -6 -10 -8 -15 -5 -5 3 -12 1 -15 -5 -5 -8 -11 -7 -21 1 -8 6 -17 9 -21 5
-3 -3 0 -6 8 -6 9 0 5 -8 -11 -21 -14 -11 -18 -17 -10 -13 11 6 11 3 -2 -12
-10 -11 -15 -28 -12 -40 3 -12 -1 -26 -10 -33 -11 -9 -13 -19 -6 -37 6 -16 6
-24 -1 -24 -6 0 -8 -4 -5 -9 7 -11 -4 -42 -13 -37 -4 3 -6 -15 -6 -40 1 -25
-3 -44 -9 -44 -6 0 -4 -5 4 -10 13 -9 13 -10 0 -10 -12 0 -12 -2 -2 -9 15 -9
15 -20 0 -38 -5 -7 -6 -18 -2 -24 5 -8 2 -11 -7 -7 -11 4 -14 -3 -14 -28 1
-18 5 -37 10 -41 4 -5 5 -3 1 4 -3 6 -1 15 6 19 7 4 10 4 6 -1 -4 -4 -2 -15 5
-23 9 -13 9 -14 0 -8 -9 5 -13 -2 -13 -24 0 -22 -4 -29 -12 -24 -9 5 -9 2 1
-9 11 -14 11 -17 0 -17 -11 0 -11 -2 1 -10 11 -7 12 -10 2 -10 -9 0 -11 -7 -7
-21 4 -13 3 -19 -2 -16 -5 4 -10 0 -10 -8 0 -8 5 -11 11 -8 6 4 5 -1 -3 -10
-11 -14 -11 -17 0 -17 8 0 6 -6 -7 -16 -10 -8 -14 -13 -8 -10 8 4 12 -10 12
-47 -1 -57 9 -100 21 -92 5 2 13 -7 19 -20 9 -19 9 -25 0 -25 -6 0 -8 -3 -5
-7 4 -3 2 -12 -4 -20 -8 -9 -15 -10 -24 -3 -10 8 -13 4 -11 -20 1 -19 -5 -37
-16 -47 -14 -13 -16 -18 -6 -25 9 -5 8 -8 -6 -8 -16 0 -17 -2 -5 -17 8 -9 9
-14 3 -10 -7 4 -14 0 -18 -8 -3 -8 0 -17 6 -21 7 -5 8 -2 3 6 -6 9 -4 11 5 5
10 -6 10 -10 -3 -20 -14 -10 -14 -12 1 -23 9 -7 12 -10 5 -7 -6 3 -14 1 -18
-5 -3 -5 -1 -10 5 -10 6 0 8 -5 5 -10 -4 -6 -10 -8 -15 -5 -5 3 -12 0 -16 -6
-4 -7 -3 -9 4 -5 17 10 20 -18 3 -32 -9 -8 -11 -11 -5 -8 15 7 15 -47 0 -56
-7 -5 -6 -8 3 -8 11 0 10 -4 -5 -16 -10 -8 -13 -13 -6 -9 18 9 15 -6 -5 -22
-11 -9 -12 -11 -3 -7 10 5 9 1 -3 -14 -11 -11 -16 -26 -12 -32 7 -12 -11 -40
-27 -40 -5 0 -7 4 -4 8 3 5 -9 8 -27 7 -18 -1 -39 4 -47 9 -13 10 -13 9 -1 -6
7 -10 17 -15 22 -12 5 3 9 0 9 -5 0 -15 -12 -14 -39 6 -14 9 -21 11 -17 5 4
-7 2 -12 -3 -12 -6 0 -11 5 -11 10 0 6 -7 10 -15 10 -10 0 -15 10 -15 31 0 19
-4 28 -11 23 -8 -4 -8 0 0 15 7 13 8 21 2 21 -6 0 -8 7 -5 15 4 8 1 15 -6 15
-6 0 -8 5 -5 10 3 6 -1 10 -10 10 -9 0 -13 5 -10 11 4 5 -1 19 -11 30 -11 12
-13 19 -5 19 7 0 9 5 6 10 -4 6 -12 7 -18 3 -7 -4 -5 2 3 12 9 11 10 16 3 11
-8 -4 -13 -1 -13 8 0 9 -5 16 -11 16 -8 0 -8 5 1 15 8 10 9 15 1 15 -7 0 -8 8
-1 26 8 19 7 23 -3 17 -6 -4 -4 6 7 21 10 16 13 26 8 22 -6 -4 -10 2 -9 13 1
12 6 17 16 13 9 -3 12 -1 7 6 -3 6 -2 13 3 17 5 3 7 15 5 28 -3 12 -6 27 -6
34 -1 7 -5 10 -10 7 -4 -3 -8 7 -8 21 0 16 -4 24 -11 19 -7 -4 -7 1 1 16 7 12
8 20 2 16 -5 -3 -12 1 -15 8 -3 8 -1 17 6 20 7 2 4 5 -6 5 -10 1 -16 5 -13 10
3 4 -1 17 -8 27 -11 15 -12 22 -3 33 9 11 9 13 1 8 -7 -4 -15 0 -18 9 -5 12
-2 15 11 10 14 -6 14 -4 -3 15 -10 12 -13 19 -6 15 6 -4 12 -4 12 -1 0 4 -6
13 -12 20 -35 39 -40 48 -35 66 3 10 1 17 -4 13 -5 -3 -9 0 -9 5 0 6 3 11 8
11 9 0 8 53 -3 70 -6 9 -4 11 6 5 11 -7 12 -6 2 7 -7 8 -9 19 -5 23 4 5 1 5
-6 1 -9 -5 -19 0 -28 13 -8 12 -22 21 -30 21 -8 0 -13 4 -9 9 3 5 0 13 -6 17
-8 5 -8 9 1 14 8 5 9 13 4 21 -5 8 -7 22 -6 31 2 10 -1 25 -7 35 -13 25 4 54
27 46 13 -4 13 -2 -3 10 -17 14 -18 16 -3 17 9 0 20 5 24 12 5 7 3 8 -6 3 -10
-6 -12 -4 -7 8 3 9 0 23 -8 31 -11 11 -12 16 -2 19 9 4 9 6 -1 6 -7 1 -10 6
-7 11 3 6 2 10 -3 10 -11 0 -10 40 2 58 4 7 4 11 -1 10 -4 -2 -8 2 -8 7 0 6 3
9 7 8 9 -3 -51 115 -63 122 -5 3 -6 -2 -3 -12 5 -16 4 -16 -8 -3 -16 18 -61
18 -83 0 -8 -7 -22 -10 -30 -6 -8 3 -15 0 -15 -6 0 -6 -6 -5 -17 3 -11 10 -14
10 -9 2 4 -8 2 -13 -4 -13 -6 0 -9 -4 -6 -8 3 -5 -1 -9 -9 -9 -8 0 -15 6 -15
14 0 7 -9 13 -20 13 -11 0 -20 5 -20 10 0 6 -8 10 -18 10 -10 0 -23 5 -29 11
-8 8 -14 6 -22 -8z m986 -258 c0 -8 -4 -12 -9 -9 -5 3 -6 10 -3 15 9 13 12 11
12 -6z m-47 -295 c0 -5 -5 -10 -11 -10 -5 0 -7 5 -4 10 3 6 8 10 11 10 2 0 4
-4 4 -10z m-350 -1881 c0 -5 4 -8 8 -5 5 3 9 -1 9 -9 0 -21 -10 -19 -25 5 -7
12 -8 20 -2 20 5 0 10 -5 10 -11z m290 -479 c11 -7 11 -10 2 -10 -7 0 -11 -4
-8 -9 3 -5 -1 -15 -10 -22 -12 -10 -15 -10 -12 2 2 8 -3 13 -9 12 -7 -2 -13 2
-13 8 0 6 7 9 15 6 8 -4 17 -2 20 3 3 4 -1 11 -7 13 -7 3 -8 6 -3 6 6 0 17 -4
25 -9z"/>
<path d="M6035 6741 c3 -5 -1 -12 -7 -14 -8 -4 -7 -6 4 -6 23 -1 32 15 12 23
-8 3 -13 2 -9 -3z"/>
<path d="M5950 6720 c0 -5 7 -7 15 -4 8 4 15 8 15 10 0 2 -7 4 -15 4 -8 0 -15
-4 -15 -10z"/>
<path d="M4903 6693 c4 -3 1 -13 -6 -22 -11 -14 -10 -14 5 -2 16 12 16 31 1
31 -4 0 -3 -3 0 -7z"/>
<path d="M4070 6679 c0 -5 5 -7 10 -4 6 3 10 8 10 11 0 2 -4 4 -10 4 -5 0 -10
-5 -10 -11z"/>
<path d="M6635 6661 c-3 -5 -2 -12 3 -15 5 -3 9 1 9 9 0 17 -3 19 -12 6z"/>
<path d="M7123 6559 c-2 -23 3 -25 10 -4 4 8 3 16 -1 19 -4 3 -9 -4 -9 -15z"/>
<path d="M7120 6524 c0 -13 18 -39 24 -34 2 3 -2 14 -10 24 -8 11 -14 16 -14
10z"/>
<path d="M5246 6421 c-3 -4 1 -17 10 -27 14 -18 15 -18 5 2 -6 12 -7 24 -4 28
3 3 4 6 0 6 -3 0 -8 -4 -11 -9z"/>
<path d="M4865 6330 c-3 -6 1 -7 9 -4 18 7 21 14 7 14 -6 0 -13 -4 -16 -10z"/>
<path d="M4875 6280 c-3 -5 -1 -10 4 -10 6 0 11 5 11 10 0 6 -2 10 -4 10 -3 0
-8 -4 -11 -10z"/>
<path d="M6636 6273 c-6 -14 -5 -15 5 -6 7 7 10 15 7 18 -3 3 -9 -2 -12 -12z"/>
<path d="M4990 5776 c0 -2 7 -7 16 -10 8 -3 12 -2 9 4 -6 10 -25 14 -25 6z"/>
<path d="M5803 5765 c0 -8 4 -12 9 -9 5 3 6 10 3 15 -9 13 -12 11 -12 -6z"/>
<path d="M7306 5758 c3 -5 10 -6 15 -3 13 9 11 12 -6 12 -8 0 -12 -4 -9 -9z"/>
<path d="M7337 5756 c-9 -7 -28 -11 -41 -9 -13 3 -33 0 -43 -6 -14 -7 -23 -7
-32 2 -7 7 -5 -1 3 -17 11 -22 12 -33 4 -43 -6 -7 -7 -13 -3 -13 4 0 2 -6 -4
-14 -9 -11 -9 -16 0 -22 8 -5 9 -3 4 6 -6 9 -4 11 5 5 10 -6 9 -11 -5 -22 -12
-8 -14 -13 -6 -13 11 0 11 -3 0 -17 -10 -11 -10 -14 -1 -9 6 4 12 3 12 -3 0
-5 -5 -13 -11 -16 -7 -5 -4 -14 8 -28 10 -11 13 -17 7 -14 -8 5 -11 -2 -10
-17 0 -13 4 -22 9 -19 4 2 7 -1 7 -6 0 -6 -7 -11 -16 -11 -14 0 -14 -2 1 -16
14 -15 14 -17 -2 -30 -10 -8 -13 -14 -8 -13 29 4 36 -1 26 -20 -8 -14 -7 -20
4 -24 10 -4 12 -1 9 11 -5 14 -4 15 4 2 8 -10 7 -19 -1 -29 -10 -12 -9 -14 5
-8 9 3 22 -1 29 -9 10 -12 9 -13 -7 -8 -15 6 -17 4 -7 -6 10 -11 15 -11 30 1
10 7 15 9 11 5 -5 -5 2 -16 14 -25 26 -18 51 -24 42 -10 -3 5 -10 6 -16 3 -7
-5 -8 -2 -3 6 6 9 4 11 -5 5 -9 -5 -11 -4 -6 4 6 9 11 9 21 1 8 -7 20 -8 26
-4 7 4 9 3 6 -3 -4 -6 -1 -13 6 -16 20 -8 32 -3 29 12 -3 13 -1 13 12 2 9 -7
13 -18 9 -24 -4 -6 -1 -7 6 -3 7 5 10 14 7 22 -3 7 0 16 6 20 6 4 9 3 6 -2 -3
-5 1 -15 9 -23 13 -12 14 -11 8 10 -7 21 -6 22 8 11 15 -13 34 -1 23 16 -2 4
4 8 14 8 16 0 17 -3 7 -16 -11 -13 -10 -13 6 -1 10 8 15 21 12 29 -5 12 -3 13
10 2 9 -7 15 -9 14 -4 -5 27 2 46 15 41 11 -4 13 -1 9 10 -4 9 -2 14 3 10 6
-3 10 5 10 18 0 13 -3 22 -7 19 -4 -2 -11 1 -15 7 -4 8 -3 9 4 5 7 -4 12 -2
12 5 0 8 5 7 17 -2 15 -13 15 -12 0 12 -10 14 -14 28 -11 32 3 3 7 19 8 36 1
21 -2 31 -12 31 -12 0 -12 3 -2 15 7 9 10 18 6 22 -3 3 -6 1 -6 -5 0 -7 -8
-12 -17 -12 -10 0 -14 4 -8 8 16 12 16 32 -1 32 -9 0 -12 -5 -8 -12 4 -7 3 -8
-4 -4 -9 5 -9 13 -1 28 7 13 7 18 1 14 -6 -3 -14 -2 -17 4 -5 8 -11 8 -19 1
-9 -8 -18 -6 -32 5 -18 14 -18 14 5 4 13 -7 21 -8 17 -2 -3 5 -19 15 -36 22
-22 9 -29 18 -25 28 4 12 0 11 -16 -4 -22 -19 -22 -19 -11 2 9 16 8 21 -3 21
-8 0 -12 -4 -9 -9 3 -4 -2 -5 -10 -2 -9 3 -13 10 -10 15 6 10 -6 12 -46 10
-20 -2 -22 0 -10 8 8 6 11 11 5 11 -5 -1 -18 -7 -28 -14z m283 -330 c0 -11
-19 -15 -25 -6 -3 5 1 10 9 10 9 0 16 -2 16 -4z"/>
<path d="M5760 5700 c-9 -6 -10 -10 -3 -10 6 0 15 5 18 10 8 12 4 12 -15 0z"/>
<path d="M7210 5700 c0 -5 5 -10 11 -10 5 0 7 5 4 10 -3 6 -8 10 -11 10 -2 0
-4 -4 -4 -10z"/>
<path d="M6615 5631 c-3 -5 -2 -12 3 -15 5 -3 9 1 9 9 0 17 -3 19 -12 6z"/>
<path d="M3373 5485 c0 -8 4 -12 9 -9 5 3 6 10 3 15 -9 13 -12 11 -12 -6z"/>
<path d="M6035 5160 c3 -5 8 -10 11 -10 2 0 4 5 4 10 0 6 -5 10 -11 10 -5 0
-7 -4 -4 -10z"/>
<path d="M4676 4737 c3 -10 9 -15 12 -12 3 3 0 11 -7 18 -10 9 -11 8 -5 -6z"/>
<path d="M7127 4444 c-3 -4 -2 -15 4 -26 5 -10 7 -24 3 -30 -4 -6 -3 -8 4 -4
13 8 11 46 -3 46 -5 0 -3 5 5 10 8 5 10 10 4 10 -6 0 -14 -3 -17 -6z"/>
<path d="M4827 4219 c7 -7 15 -10 18 -7 3 3 -2 9 -12 12 -14 6 -15 5 -6 -5z"/>
</g>
</svg>
